<mxfile host="Electron" agent="Mozilla/5.0 (Windows NT 10.0; Win64; x64) AppleWebKit/537.36 (KHTML, like Gecko) draw.io/26.0.9 Chrome/128.0.6613.186 Electron/32.2.5 Safari/537.36" version="26.0.9">
  <diagram name="Page-1" id="g53xd91sZk2ucK6xWG3X">
    <mxGraphModel dx="1167" dy="690" grid="1" gridSize="10" guides="1" tooltips="1" connect="1" arrows="1" fold="1" page="1" pageScale="1" pageWidth="850" pageHeight="1100" math="0" shadow="0">
      <root>
        <mxCell id="0" />
        <mxCell id="1" parent="0" />
        <mxCell id="IDfOYiR3qJVNEgodymjk-1" value="Начало" style="rounded=1;whiteSpace=wrap;html=1;arcSize=50;" vertex="1" parent="1">
          <mxGeometry x="505.01" y="230" width="100" height="20" as="geometry" />
        </mxCell>
        <mxCell id="IDfOYiR3qJVNEgodymjk-2" value="Конец" style="rounded=1;whiteSpace=wrap;html=1;arcSize=50;" vertex="1" parent="1">
          <mxGeometry x="505.01" y="850" width="100" height="20" as="geometry" />
        </mxCell>
        <mxCell id="IDfOYiR3qJVNEgodymjk-14" style="edgeStyle=orthogonalEdgeStyle;rounded=0;orthogonalLoop=1;jettySize=auto;html=1;entryX=0.5;entryY=0;entryDx=0;entryDy=0;" edge="1" parent="1" source="IDfOYiR3qJVNEgodymjk-3" target="IDfOYiR3qJVNEgodymjk-4">
          <mxGeometry relative="1" as="geometry" />
        </mxCell>
        <mxCell id="IDfOYiR3qJVNEgodymjk-29" value="Нет" style="edgeLabel;html=1;align=center;verticalAlign=middle;resizable=0;points=[];" vertex="1" connectable="0" parent="IDfOYiR3qJVNEgodymjk-14">
          <mxGeometry x="-0.3824" y="1" relative="1" as="geometry">
            <mxPoint as="offset" />
          </mxGeometry>
        </mxCell>
        <mxCell id="IDfOYiR3qJVNEgodymjk-19" style="edgeStyle=orthogonalEdgeStyle;rounded=0;orthogonalLoop=1;jettySize=auto;html=1;entryX=0.5;entryY=0;entryDx=0;entryDy=0;" edge="1" parent="1" source="IDfOYiR3qJVNEgodymjk-3" target="IDfOYiR3qJVNEgodymjk-8">
          <mxGeometry relative="1" as="geometry" />
        </mxCell>
        <mxCell id="IDfOYiR3qJVNEgodymjk-28" value="Да" style="edgeLabel;html=1;align=center;verticalAlign=middle;resizable=0;points=[];" vertex="1" connectable="0" parent="IDfOYiR3qJVNEgodymjk-19">
          <mxGeometry x="-0.6608" relative="1" as="geometry">
            <mxPoint as="offset" />
          </mxGeometry>
        </mxCell>
        <mxCell id="IDfOYiR3qJVNEgodymjk-3" value="&lt;font style=&quot;font-size: 10px;&quot;&gt;&lt;b&gt;A1 / A2 = B1 / B2&lt;/b&gt;&lt;/font&gt;&lt;div&gt;&lt;font style=&quot;font-size: 10px;&quot;&gt;&lt;b&gt;и&amp;nbsp;&amp;nbsp;&lt;br&gt;A1 / A2 = C1 / C2&lt;/b&gt;&lt;/font&gt;&lt;/div&gt;" style="rhombus;whiteSpace=wrap;html=1;" vertex="1" parent="1">
          <mxGeometry x="455.01" y="320" width="200" height="80" as="geometry" />
        </mxCell>
        <mxCell id="IDfOYiR3qJVNEgodymjk-15" style="edgeStyle=orthogonalEdgeStyle;rounded=0;orthogonalLoop=1;jettySize=auto;html=1;entryX=0.5;entryY=0;entryDx=0;entryDy=0;" edge="1" parent="1" source="IDfOYiR3qJVNEgodymjk-4" target="IDfOYiR3qJVNEgodymjk-5">
          <mxGeometry relative="1" as="geometry" />
        </mxCell>
        <mxCell id="IDfOYiR3qJVNEgodymjk-30" value="Нет" style="edgeLabel;html=1;align=center;verticalAlign=middle;resizable=0;points=[];" vertex="1" connectable="0" parent="IDfOYiR3qJVNEgodymjk-15">
          <mxGeometry x="0.1816" relative="1" as="geometry">
            <mxPoint as="offset" />
          </mxGeometry>
        </mxCell>
        <mxCell id="IDfOYiR3qJVNEgodymjk-20" style="edgeStyle=orthogonalEdgeStyle;rounded=0;orthogonalLoop=1;jettySize=auto;html=1;entryX=0.5;entryY=0;entryDx=0;entryDy=0;" edge="1" parent="1" source="IDfOYiR3qJVNEgodymjk-4" target="IDfOYiR3qJVNEgodymjk-9">
          <mxGeometry relative="1" as="geometry" />
        </mxCell>
        <mxCell id="IDfOYiR3qJVNEgodymjk-27" value="Да" style="edgeLabel;html=1;align=center;verticalAlign=middle;resizable=0;points=[];" vertex="1" connectable="0" parent="IDfOYiR3qJVNEgodymjk-20">
          <mxGeometry x="-0.614" y="1" relative="1" as="geometry">
            <mxPoint as="offset" />
          </mxGeometry>
        </mxCell>
        <mxCell id="IDfOYiR3qJVNEgodymjk-4" value="&lt;font style=&quot;font-size: 10px;&quot;&gt;&lt;b&gt;A1 = 0.0 и B1 = 0.0&amp;nbsp;&lt;/b&gt;&lt;/font&gt;&lt;div&gt;&lt;font style=&quot;font-size: 10px;&quot;&gt;&lt;b&gt;или&lt;br&gt;&lt;/b&gt;&lt;/font&gt;&lt;div&gt;&lt;font style=&quot;font-size: 10px;&quot;&gt;&lt;b&gt;A2 = 0.0 и B2 = 0.0&lt;/b&gt;&lt;/font&gt;&lt;/div&gt;&lt;/div&gt;" style="rhombus;whiteSpace=wrap;html=1;" vertex="1" parent="1">
          <mxGeometry x="453.14" y="440" width="203.75" height="90" as="geometry" />
        </mxCell>
        <mxCell id="IDfOYiR3qJVNEgodymjk-16" style="edgeStyle=orthogonalEdgeStyle;rounded=0;orthogonalLoop=1;jettySize=auto;html=1;entryX=0.5;entryY=0;entryDx=0;entryDy=0;" edge="1" parent="1" source="IDfOYiR3qJVNEgodymjk-5" target="IDfOYiR3qJVNEgodymjk-6">
          <mxGeometry relative="1" as="geometry" />
        </mxCell>
        <mxCell id="IDfOYiR3qJVNEgodymjk-31" value="Да" style="edgeLabel;html=1;align=center;verticalAlign=middle;resizable=0;points=[];" vertex="1" connectable="0" parent="IDfOYiR3qJVNEgodymjk-16">
          <mxGeometry x="-0.0687" y="-1" relative="1" as="geometry">
            <mxPoint as="offset" />
          </mxGeometry>
        </mxCell>
        <mxCell id="IDfOYiR3qJVNEgodymjk-21" style="edgeStyle=orthogonalEdgeStyle;rounded=0;orthogonalLoop=1;jettySize=auto;html=1;entryX=0.5;entryY=0;entryDx=0;entryDy=0;" edge="1" parent="1" source="IDfOYiR3qJVNEgodymjk-5" target="IDfOYiR3qJVNEgodymjk-10">
          <mxGeometry relative="1" as="geometry" />
        </mxCell>
        <mxCell id="IDfOYiR3qJVNEgodymjk-32" value="Нет" style="edgeLabel;html=1;align=center;verticalAlign=middle;resizable=0;points=[];" vertex="1" connectable="0" parent="IDfOYiR3qJVNEgodymjk-21">
          <mxGeometry x="-0.8634" y="-1" relative="1" as="geometry">
            <mxPoint as="offset" />
          </mxGeometry>
        </mxCell>
        <mxCell id="IDfOYiR3qJVNEgodymjk-5" value="&lt;font style=&quot;font-size: 10px;&quot;&gt;&lt;b&gt;A1 / A2 != B1 / B2&lt;/b&gt;&lt;/font&gt;" style="rhombus;whiteSpace=wrap;html=1;" vertex="1" parent="1">
          <mxGeometry x="485.01" y="560" width="140" height="50" as="geometry" />
        </mxCell>
        <mxCell id="IDfOYiR3qJVNEgodymjk-17" style="edgeStyle=orthogonalEdgeStyle;rounded=0;orthogonalLoop=1;jettySize=auto;html=1;entryX=0.5;entryY=0;entryDx=0;entryDy=0;" edge="1" parent="1" source="IDfOYiR3qJVNEgodymjk-6" target="IDfOYiR3qJVNEgodymjk-11">
          <mxGeometry relative="1" as="geometry" />
        </mxCell>
        <mxCell id="IDfOYiR3qJVNEgodymjk-6" value="x = (B1 * C2 - C1 * B2) / (A1 * B2 - A2 * B1)&lt;div&gt;y = -(C2 + A2 * x) / B2&lt;/div&gt;" style="rounded=0;whiteSpace=wrap;html=1;" vertex="1" parent="1">
          <mxGeometry x="425.01" y="660" width="260" height="60" as="geometry" />
        </mxCell>
        <mxCell id="IDfOYiR3qJVNEgodymjk-13" style="edgeStyle=orthogonalEdgeStyle;rounded=0;orthogonalLoop=1;jettySize=auto;html=1;exitX=0.5;exitY=1;exitDx=0;exitDy=0;entryX=0.5;entryY=0;entryDx=0;entryDy=0;" edge="1" parent="1" source="IDfOYiR3qJVNEgodymjk-7" target="IDfOYiR3qJVNEgodymjk-3">
          <mxGeometry relative="1" as="geometry" />
        </mxCell>
        <mxCell id="IDfOYiR3qJVNEgodymjk-7" value="Ввод A1, B1, C1, A2, B2, C2" style="shape=parallelogram;perimeter=parallelogramPerimeter;whiteSpace=wrap;html=1;fixedSize=1;" vertex="1" parent="1">
          <mxGeometry x="450.01" y="270" width="210" height="20" as="geometry" />
        </mxCell>
        <mxCell id="IDfOYiR3qJVNEgodymjk-25" style="edgeStyle=orthogonalEdgeStyle;rounded=0;orthogonalLoop=1;jettySize=auto;html=1;entryX=0.5;entryY=0;entryDx=0;entryDy=0;" edge="1" parent="1" source="IDfOYiR3qJVNEgodymjk-8" target="IDfOYiR3qJVNEgodymjk-24">
          <mxGeometry relative="1" as="geometry" />
        </mxCell>
        <mxCell id="IDfOYiR3qJVNEgodymjk-8" value="Вывод:&amp;nbsp;the lines coincide" style="shape=parallelogram;perimeter=parallelogramPerimeter;whiteSpace=wrap;html=1;fixedSize=1;" vertex="1" parent="1">
          <mxGeometry x="225" y="420" width="185" height="20" as="geometry" />
        </mxCell>
        <mxCell id="IDfOYiR3qJVNEgodymjk-23" style="edgeStyle=orthogonalEdgeStyle;rounded=0;orthogonalLoop=1;jettySize=auto;html=1;entryX=0.5;entryY=0;entryDx=0;entryDy=0;" edge="1" parent="1" source="IDfOYiR3qJVNEgodymjk-9" target="IDfOYiR3qJVNEgodymjk-22">
          <mxGeometry relative="1" as="geometry" />
        </mxCell>
        <mxCell id="IDfOYiR3qJVNEgodymjk-9" value="Вывод:&amp;nbsp;One of the lines does not exist" style="shape=parallelogram;perimeter=parallelogramPerimeter;whiteSpace=wrap;html=1;fixedSize=1;" vertex="1" parent="1">
          <mxGeometry x="160" y="550" width="250" height="20" as="geometry" />
        </mxCell>
        <mxCell id="IDfOYiR3qJVNEgodymjk-26" style="edgeStyle=orthogonalEdgeStyle;rounded=0;orthogonalLoop=1;jettySize=auto;html=1;entryX=0.5;entryY=0;entryDx=0;entryDy=0;" edge="1" parent="1" source="IDfOYiR3qJVNEgodymjk-10" target="IDfOYiR3qJVNEgodymjk-2">
          <mxGeometry relative="1" as="geometry" />
        </mxCell>
        <mxCell id="IDfOYiR3qJVNEgodymjk-10" value="Вывод:&amp;nbsp;Algorith error" style="shape=parallelogram;perimeter=parallelogramPerimeter;whiteSpace=wrap;html=1;fixedSize=1;" vertex="1" parent="1">
          <mxGeometry x="265" y="790" width="205" height="20" as="geometry" />
        </mxCell>
        <mxCell id="IDfOYiR3qJVNEgodymjk-18" style="edgeStyle=orthogonalEdgeStyle;rounded=0;orthogonalLoop=1;jettySize=auto;html=1;entryX=0.5;entryY=0;entryDx=0;entryDy=0;" edge="1" parent="1" source="IDfOYiR3qJVNEgodymjk-11" target="IDfOYiR3qJVNEgodymjk-2">
          <mxGeometry relative="1" as="geometry" />
        </mxCell>
        <mxCell id="IDfOYiR3qJVNEgodymjk-11" value="Вывод:&amp;nbsp;The lines intersect at point: X, Y" style="shape=parallelogram;perimeter=parallelogramPerimeter;whiteSpace=wrap;html=1;fixedSize=1;" vertex="1" parent="1">
          <mxGeometry x="419.99" y="740" width="270" height="20" as="geometry" />
        </mxCell>
        <mxCell id="IDfOYiR3qJVNEgodymjk-12" style="edgeStyle=orthogonalEdgeStyle;rounded=0;orthogonalLoop=1;jettySize=auto;html=1;exitX=0.5;exitY=1;exitDx=0;exitDy=0;entryX=0.506;entryY=0.171;entryDx=0;entryDy=0;entryPerimeter=0;" edge="1" parent="1" source="IDfOYiR3qJVNEgodymjk-1" target="IDfOYiR3qJVNEgodymjk-7">
          <mxGeometry relative="1" as="geometry" />
        </mxCell>
        <mxCell id="IDfOYiR3qJVNEgodymjk-22" value="Конец" style="rounded=1;whiteSpace=wrap;html=1;arcSize=50;" vertex="1" parent="1">
          <mxGeometry x="235" y="620" width="100" height="20" as="geometry" />
        </mxCell>
        <mxCell id="IDfOYiR3qJVNEgodymjk-24" value="Конец" style="rounded=1;whiteSpace=wrap;html=1;arcSize=50;" vertex="1" parent="1">
          <mxGeometry x="267.5" y="460" width="100" height="20" as="geometry" />
        </mxCell>
      </root>
    </mxGraphModel>
  </diagram>
</mxfile>
